<svg xmlns="http://www.w3.org/2000/svg" viewBox="0 0 2891 640"><defs><style>.cls-1{fill:#020202;}</style></defs><title>bandeNoiresvg</title><g id="Layer_2" data-name="Layer 2"><g id="Layer_1-2" data-name="Layer 1"><path class="cls-1" d="M286,639.5A285.5,285.5,0,0,1,84.12,152.12,285.5,285.5,0,0,1,487.88,555.88,283.64,283.64,0,0,1,286,639.5Z"/><path d="M286,69A285.07,285.07,0,0,1,396.93,616.6,285.07,285.07,0,0,1,175.07,91.4,283.18,283.18,0,0,1,286,69m0-1C128.05,68,0,196.05,0,354S128.05,640,286,640,572,512,572,354,444,68,286,68Z"/><path class="cls-1" d="M865.75,639.5A285.5,285.5,0,0,1,663.87,152.12a285.5,285.5,0,0,1,403.76,403.76A283.64,283.64,0,0,1,865.75,639.5Z"/><path d="M865.75,69A285.07,285.07,0,0,1,976.68,616.6,285.07,285.07,0,0,1,754.82,91.4,283.18,283.18,0,0,1,865.75,69m0-1c-158,0-286,128.05-286,286s128,286,286,286,286-128,286-286-128-286-286-286Z"/><path class="cls-1" d="M1445.5,639.5a285.5,285.5,0,0,1-201.88-487.38,285.5,285.5,0,0,1,403.76,403.76A283.64,283.64,0,0,1,1445.5,639.5Z"/><path d="M1445.5,69a285.07,285.07,0,0,1,110.93,547.6A285.07,285.07,0,0,1,1334.57,91.4,283.18,283.18,0,0,1,1445.5,69m0-1c-158,0-286,128.05-286,286s128,286,286,286,286-128,286-286-128-286-286-286Z"/><path class="cls-1" d="M2025.25,639.5a285.5,285.5,0,0,1-201.88-487.38,285.5,285.5,0,0,1,403.76,403.76A283.64,283.64,0,0,1,2025.25,639.5Z"/><path d="M2025.25,69a285.07,285.07,0,0,1,110.93,547.6A285.07,285.07,0,0,1,1914.32,91.4,283.18,283.18,0,0,1,2025.25,69m0-1c-158,0-286,128.05-286,286s128,286,286,286,286-128,286-286-128.05-286-286-286Z"/><path class="cls-1" d="M2605,639.5a285.5,285.5,0,0,1-201.88-487.38,285.5,285.5,0,0,1,403.76,403.76A283.64,283.64,0,0,1,2605,639.5Z"/><path d="M2605,69a285.07,285.07,0,0,1,110.93,547.6A285.07,285.07,0,0,1,2494.07,91.4,283.18,283.18,0,0,1,2605,69m0-1c-157.95,0-286,128.05-286,286s128.05,286,286,286,286-128,286-286S2763,68,2605,68Z"/><rect class="cls-1" x="4.5" y="0.5" width="2884.01" height="394.01"/><path d="M2888,1V394H5V1H2888m1-1H4V395H2889V0Z"/></g></g></svg>